<?xml version="1.0" standalone="no"?><!DOCTYPE svg PUBLIC "-//W3C//DTD SVG 1.1//EN" "http://www.w3.org/Graphics/SVG/1.1/DTD/svg11.dtd"><svg t="1697439794316" class="icon" viewBox="0 0 1345 1024" version="1.1" xmlns="http://www.w3.org/2000/svg" p-id="9801" xmlns:xlink="http://www.w3.org/1999/xlink" width="262.6953125" height="200"><path d="M863.372549 20.078431a20.078431 20.078431 0 0 0-20.078431 20.078432v943.686274a20.078431 20.078431 0 0 0 20.078431 20.078432h441.72549a20.078431 20.078431 0 0 0 20.078432-20.078432V40.156863a20.078431 20.078431 0 0 0-20.078432-20.078432z m0-20.078431h441.72549a40.156863 40.156863 0 0 1 40.156863 40.156863v943.686274a40.156863 40.156863 0 0 1-40.156863 40.156863H863.372549a40.156863 40.156863 0 0 1-40.156863-40.156863V40.156863a40.156863 40.156863 0 0 1 40.156863-40.156863z" fill="#9B9B9B" p-id="9802"></path><path d="M863.372549 140.54902v20.078431h401.568627V140.54902z m-20.078431-20.078432h441.72549v60.235294H843.294118zM933.647059 401.568627h341.333333a10.039216 10.039216 0 0 1 10.039216 10.039216 10.039216 10.039216 0 0 1-10.039216 10.039216h-341.333333a10.039216 10.039216 0 0 1-10.039216-10.039216 10.039216 10.039216 0 0 1 10.039216-10.039216zM933.647059 501.960784h341.333333a10.039216 10.039216 0 0 1 10.039216 10.039216 10.039216 10.039216 0 0 1-10.039216 10.039216h-341.333333a10.039216 10.039216 0 0 1-10.039216-10.039216 10.039216 10.039216 0 0 1 10.039216-10.039216z" fill="#9B9B9B" p-id="9803"></path><path d="M1094.27451 813.176471m-50.196079 0a50.196078 50.196078 0 1 0 100.392157 0 50.196078 50.196078 0 1 0-100.392157 0Z" fill="#9B9B9B" p-id="9804"></path><path d="M20.078431 60.235294h1003.921569v742.901961H20.078431z" fill="#FFFFFF" p-id="9805"></path><path d="M40.156863 60.235294a20.078431 20.078431 0 0 0-20.078432 20.078431v682.666667a20.078431 20.078431 0 0 0 20.078432 20.078432h943.686274a20.078431 20.078431 0 0 0 20.078432-20.078432V80.313725a20.078431 20.078431 0 0 0-20.078432-20.078431z m0-20.078431h943.686274a40.156863 40.156863 0 0 1 40.156863 40.156862v682.666667a40.156863 40.156863 0 0 1-40.156863 40.156863H40.156863a40.156863 40.156863 0 0 1-40.156863-40.156863V80.313725a40.156863 40.156863 0 0 1 40.156863-40.156862z" fill="#9B9B9B" p-id="9806"></path><path d="M421.647059 803.137255v100.392157h180.705882v-100.392157z m-20.078432-20.078431h220.862746v140.549019H401.568627z" fill="#9B9B9B" p-id="9807"></path><path d="M180.705882 1003.921569h682.666667v-60.235294a20.078431 20.078431 0 0 0-20.078431-20.078432H200.784314a20.078431 20.078431 0 0 0-20.078432 20.078432z m20.078432-100.392157h642.509804a40.156863 40.156863 0 0 1 40.156862 40.156863v80.313725H160.627451v-80.313725a40.156863 40.156863 0 0 1 40.156863-40.156863z" fill="#9B9B9B" p-id="9808"></path><path d="M200.784314 923.607843h642.509804a20.078431 20.078431 0 0 1 20.078431 20.078432v60.235294H180.705882v-60.235294a20.078431 20.078431 0 0 1 20.078432-20.078432z" fill="#FFFFFF" p-id="9809"></path><path d="M670.418824 582.27451H353.581176a12.247843 12.247843 0 0 1-10.440784-6.02353 13.251765 13.251765 0 0 1 0-13.05098L501.960784 267.64549a11.846275 11.846275 0 0 1 10.039216-6.625882 11.846275 11.846275 0 0 1 10.641569 6.625882l18.271372 34.133334a4.216471 4.216471 0 0 1-1.606274 5.822745 4.417255 4.417255 0 0 1-5.822745-1.807059l-18.271373-34.334118a3.614118 3.614118 0 0 0-6.425098 0l-158.418824 295.755294a5.019608 5.019608 0 0 0 0 4.818824 3.814902 3.814902 0 0 0 3.011765 1.807059h317.038432a3.814902 3.814902 0 0 0 3.011764-1.807059 5.019608 5.019608 0 0 0 0-4.818824L563.802353 361.411765a4.216471 4.216471 0 0 1 1.606274-5.822745 4.417255 4.417255 0 0 1 5.822746 1.807058l109.829019 205.000785a13.251765 13.251765 0 0 1 0 13.05098 12.247843 12.247843 0 0 1-10.641568 6.826667z m-160.627451-104.809412a4.216471 4.216471 0 0 1-4.417255-4.216471v-106.415686a4.417255 4.417255 0 0 1 8.633725 0v106.415686a4.216471 4.216471 0 0 1-3.614118 4.216471z m9.236078 30.519216a9.236078 9.236078 0 0 1-9.236078 9.035294 9.236078 9.236078 0 1 1 0-18.271373 9.236078 9.236078 0 0 1 9.838431 9.236079z" fill="#9B9B9B" p-id="9810"></path></svg>